<svg xmlns="http://www.w3.org/2000/svg" xml:space="preserve" width="2000" height="188" viewBox="0 0 2000 188" data-version="1" data-id="lg_MNifcwLlDjqacOSSZO"><g id="outer-wrapper" data-padding="20" transform="matrix(1,0,0,1,0,0)"><g id="inner-wrapper" transform="matrix(0.96415770609319,0,0,0.96415770609319,10,3.369175627240139)"><rect width="400.367" height="187.58" x="429.787883116933" y="-399.83000000000004" fill="none" rx="0" ry="0" transform="translate(480.32 400.04)"></rect><path fill="#e84613" d="M962.3908831169331 87.63L964.8808831169331 68.54000000000002L988.7908831169331 21.640000000000043H1004.720883116933L968.6208831169331 92.53000000000003V146.14000000000004H951.190883116933V92.61000000000007L915.000883116933 21.640000000000043L931.930883116933 19.980000000000018L955.840883116933 66.95999999999998ZM1059.420883116933 147.56Q1050.210883116933 147.56 1042.610883116933 143.94Q1035.020883116933 140.32999999999998 1029.540883116933 133.98000000000002Q1024.060883116933 127.64000000000004 1021.0308831169331 118.96000000000004Q1018.0008831169331 110.29000000000002 1018.0008831169331 100.25000000000006Q1018.0008831169331 90.20000000000005 1020.9108831169331 81.61000000000007Q1023.8108831169332 73.0200000000001 1029.210883116933 66.75000000000006Q1034.6008831169331 60.490000000000066 1042.2808831169332 56.960000000000036T1059.420883116933 53.430000000000064Q1068.630883116933 53.430000000000064 1076.2708831169332 56.960000000000036T1089.380883116933 66.75000000000006Q1094.860883116933 73.02000000000004 1097.9308831169333 81.61000000000007T1101.0008831169332 100.25000000000006Q1101.0008831169332 110.29000000000008 1098.0608831169332 118.96000000000004Q1095.110883116933 127.64000000000004 1089.7208831169332 133.98000000000002Q1084.3208831169331 140.33000000000004 1076.6008831169331 143.94Q1068.880883116933 147.56 1059.420883116933 147.56M1085.2308831169332 102.49000000000001Q1085.2308831169332 95.75999999999999 1083.7808831169332 89.29000000000002T1079.170883116933 77.71000000000004Q1076.0208831169332 72.61000000000001 1071.0408831169332 69.45000000000005Q1066.0608831169332 66.30000000000007 1059.0908831169331 66.30000000000007Q1052.4508831169333 66.30000000000007 1047.630883116933 69.04000000000008Q1042.8208831169331 71.78000000000009 1039.7508831169332 76.34000000000009Q1036.6808831169333 80.91000000000008 1035.2308831169332 86.72000000000008Q1033.7708831169332 92.53000000000009 1033.7708831169332 98.67000000000007Q1033.7708831169332 105.3900000000001 1035.2308831169332 111.87000000000006Q1036.6808831169333 118.34000000000009 1039.7908831169332 123.40000000000003Q1042.9008831169333 128.47000000000003 1047.8408831169331 131.58000000000004T1059.7508831169332 134.69000000000005Q1066.3108831169334 134.69000000000005 1071.1208831169333 131.95000000000005Q1075.9408831169333 129.21000000000004 1079.0908831169334 124.69000000000005Q1082.2508831169334 120.17000000000007 1083.7408831169332 114.36000000000007T1085.2308831169332 102.49000000000007M1159.0208831169334 147.56000000000006Q1149.8108831169334 147.56000000000006 1142.2108831169335 143.94000000000005Q1134.6208831169333 140.33000000000004 1129.1408831169333 133.98000000000008Q1123.6608831169333 127.6400000000001 1120.6308831169333 118.9600000000001Q1117.6008831169333 110.29000000000008 1117.6008831169333 100.25000000000011Q1117.6008831169333 90.2000000000001 1120.5108831169334 81.61000000000013Q1123.4108831169333 73.02000000000015 1128.8108831169334 66.75000000000011Q1134.2008831169335 60.49000000000012 1141.8808831169335 56.96000000000009T1159.0208831169334 53.43000000000012Q1168.2308831169335 53.43000000000012 1175.8708831169333 56.96000000000009T1188.9808831169335 66.75000000000011Q1194.4608831169335 73.0200000000001 1197.5308831169334 81.61000000000013T1200.6008831169333 100.25000000000011Q1200.6008831169333 110.29000000000013 1197.6608831169333 118.9600000000001Q1194.7108831169335 127.6400000000001 1189.3208831169334 133.98000000000008Q1183.9208831169335 140.3300000000001 1176.2008831169333 143.94000000000005Q1168.4808831169335 147.56000000000006 1159.0208831169334 147.56000000000006M1184.8308831169334 102.49000000000007Q1184.8308831169334 95.76000000000005 1183.3808831169333 89.29000000000008T1178.7708831169334 77.7100000000001Q1175.6208831169333 72.61000000000007 1170.6408831169333 69.4500000000001Q1165.6608831169333 66.30000000000013 1158.6908831169333 66.30000000000013Q1152.0508831169332 66.30000000000013 1147.2308831169332 69.04000000000013Q1142.4208831169333 71.78000000000014 1139.3508831169333 76.34000000000015Q1136.2808831169332 80.91000000000014 1134.8308831169334 86.72000000000014Q1133.3708831169333 92.53000000000014 1133.3708831169333 98.67000000000013Q1133.3708831169333 105.39000000000016 1134.8308831169334 111.87000000000012Q1136.2808831169332 118.34000000000015 1139.3908831169333 123.40000000000009Q1142.5008831169332 128.47000000000008 1147.4408831169333 131.5800000000001T1159.3508831169333 134.6900000000001Q1165.9108831169333 134.6900000000001 1170.7208831169332 131.9500000000001Q1175.5408831169334 129.2100000000001 1178.6908831169333 124.69000000000011Q1181.8508831169333 120.17000000000013 1183.3408831169331 114.36000000000013T1184.8308831169334 102.49000000000012M1241.2708831169332 76.09000000000015V146.14000000000016H1225.5008831169332V54.840000000000146L1241.2708831169332 53.18000000000012V68.37000000000012L1246.3408831169331 59.49000000000012Q1247.8308831169334 58.500000000000114 1250.150883116933 57.42000000000013Q1252.4808831169332 56.340000000000146 1255.3408831169331 55.47000000000014Q1258.2108831169332 54.600000000000136 1261.5308831169332 54.01000000000016Q1264.8508831169333 53.43000000000018 1268.2508831169334 53.43000000000018Q1274.8108831169334 53.43000000000018 1279.3308831169334 55.55000000000018T1286.6708831169335 61.650000000000205Q1289.5008831169334 65.63000000000022 1290.7008831169333 71.2800000000002Q1291.9008831169335 76.92000000000019 1291.9008831169335 83.89000000000021V146.1400000000002H1276.1308831169335V83.89000000000021Q1276.1308831169335 79.4100000000002 1275.5108831169334 76.18000000000023Q1274.8908831169333 72.94000000000023 1273.3508831169333 70.82000000000022Q1271.8208831169336 68.7100000000002 1269.2408831169334 67.7100000000002Q1266.6708831169335 66.7100000000002 1262.8508831169333 66.7100000000002Q1260.0308831169334 66.7100000000002 1257.1308831169335 67.58000000000021Q1254.2208831169335 68.4600000000002 1251.4408831169335 69.83000000000021T1246.0508831169334 72.86000000000018Q1243.4308831169333 74.52000000000021 1241.2708831169334 76.0900000000002 "></path><path fill="#2f2a29" stroke="#e84613" stroke-width="4.56" d="M816.600883116933 29.587999999999965A63.952 63.952 0 1 0 816.600883116933 157.49199999999996A63.952 63.952 0 1 0 816.600883116933 29.587999999999965Z "></path><path fill="#e84613" d="M795.115883116933 125.45799999999997C793.585883116933 121.844 789.277883116933 108.49999999999994 800.397883116933 91.12499999999994C815.687883116933 67.77299999999997 809.710883116933 47.61799999999994 809.710883116933 47.61799999999994S829.587883116933 54.98499999999996 823.610883116933 94.87799999999993C822.220883116933 103.91299999999995 822.359883116933 107.38799999999992 826.3908831169331 107.9439999999999C833.340883116933 108.91699999999992 830.699883116933 80.56099999999992 830.699883116933 80.56099999999992S836.119883116933 83.3409999999999 840.151883116933 97.37999999999994C842.2368831169331 104.74699999999996 842.653883116933 110.58499999999992 842.375883116933 114.75499999999994C840.985883116933 139.91399999999993 819.440883116933 141.99899999999997 819.440883116933 141.99899999999997S803.038883116933 144.22299999999996 795.115883116933 125.45799999999997 "></path></g><rect width="558" height="188" x="725.5883389191933" y="0" id="space-saver" fill="transparent" stroke="transparent"></rect></g></svg>