<svg xmlns="http://www.w3.org/2000/svg" xml:space="preserve" width="308.7612359841165" height="304.915625" viewBox="0 0 106.00782394174519 104.68749999999999" data-version="1" data-id="lg_MNifcwLlDjqacOSSZO" x="0" y="0">
  <rect width="2000" height="1500" id="background" stroke="transparent" fill="#2f2a29"></rect>
  <g id="outer-wrapper" data-padding="20" transform="matrix(2.6446785606854855,0,0,2.6446785606854855,-1644.6785606854855,-1233.5089205141142)">
    <g id="inner-wrapper" transform="matrix(0.96415770609319,0,0,0.96415770609319,10,3.369175627240139)">
      <rect width="400.367" height="187.58" x="429.787883116933" y="280.5566171003717" fill="none" rx="0" ry="0" transform="translate(480.32 400.04)"></rect>
      <path fill="#e84613" d="M962.3908831169331 768.0166171003717L964.8808831169331 748.9266171003717L988.7908831169331 702.0266171003718H1004.720883116933L968.6208831169331 772.9166171003717V826.5266171003718H951.190883116933V772.9966171003719L915.000883116933 702.0266171003718L931.930883116933 700.3666171003717L955.840883116933 747.3466171003718Z"></path>
      <path fill="#2f2a29" stroke="#e84613" stroke-width="4.56" d="M816.600883116933 709.9746171003717A63.952 63.952 0 1 0 816.600883116933 837.8786171003717A63.952 63.952 0 1 0 816.600883116933 709.9746171003717Z"></path>
      <path fill="#e84613" d="M795.115883116933 805.8446171003717C793.585883116933 802.2306171003718 789.277883116933 788.8866171003717 800.397883116933 771.5116171003717C815.687883116933 748.1596171003716 809.710883116933 728.0046171003717 809.710883116933 728.0046171003717S829.587883116933 735.3716171003716 823.610883116933 775.2646171003717C822.220883116933 784.2996171003717 822.359883116933 787.7746171003716 826.3908831169331 788.3306171003717C833.340883116933 789.3036171003716 830.699883116933 760.9476171003716 830.699883116933 760.9476171003716S836.119883116933 763.7276171003716 840.151883116933 777.7666171003716C842.2368831169331 785.1336171003717 842.653883116933 790.9716171003716 842.375883116933 795.1416171003716C840.985883116933 820.3006171003717 819.440883116933 822.3856171003717 819.440883116933 822.3856171003717S803.038883116933 824.6096171003717 795.115883116933 805.8446171003717"></path>
    </g>
    <rect width="558" height="188" x="725.5883389191933" y="656" id="space-saver" fill="transparent" stroke="transparent"></rect>
  </g>
</svg>